<?xml version="1.0" standalone="no"?><!DOCTYPE svg PUBLIC "-//W3C//DTD SVG 1.1//EN" "http://www.w3.org/Graphics/SVG/1.1/DTD/svg11.dtd"><svg t="1562578705131" class="icon" viewBox="0 0 1024 1024" version="1.1" xmlns="http://www.w3.org/2000/svg" p-id="4371" xmlns:xlink="http://www.w3.org/1999/xlink" width="200" height="200"><defs><style type="text/css"></style></defs><path d="M832.512 89.6H686.08v-56.32c0-16.896-13.824-30.72-30.72-30.72s-30.72 13.824-30.72 30.72v56.32H389.12v-56.32c0-16.896-13.824-30.72-30.72-30.72s-30.72 13.824-30.72 30.72v56.32H191.488c-46.08 0-83.968 37.888-83.968 83.968v763.904c0 46.08 37.888 83.968 83.968 83.968h641.024c46.08 0 83.968-37.888 83.968-83.968V173.568c0-46.08-37.888-83.968-83.968-83.968z m-641.024 61.44H327.68v51.2c0 16.896 13.824 30.72 30.72 30.72s30.72-13.824 30.72-30.72v-51.2h235.52v51.2c0 16.896 13.824 30.72 30.72 30.72s30.72-13.824 30.72-30.72v-51.2h146.432c12.288 0 22.528 10.24 22.528 22.528v120.832H168.96V173.568c0-12.288 10.24-22.528 22.528-22.528z m641.024 808.96H191.488c-12.288 0-22.528-10.24-22.528-22.528V355.84h686.08v581.632c0 12.288-10.24 22.528-22.528 22.528z" fill="#646464" p-id="4372"></path><path d="M619.52 458.24H250.88c-16.896 0-30.72 13.824-30.72 30.72s13.824 30.72 30.72 30.72h368.64c16.896 0 30.72-13.824 30.72-30.72s-13.824-30.72-30.72-30.72zM619.52 586.24H250.88c-16.896 0-30.72 13.824-30.72 30.72s13.824 30.72 30.72 30.72h368.64c16.896 0 30.72-13.824 30.72-30.72s-13.824-30.72-30.72-30.72zM537.6 714.24H250.88c-16.896 0-30.72 13.824-30.72 30.72s13.824 30.72 30.72 30.72h286.72c16.896 0 30.72-13.824 30.72-30.72s-13.824-30.72-30.72-30.72z" fill="#646464" p-id="4373"></path></svg>