<?xml version="1.0" standalone="no"?><!DOCTYPE svg PUBLIC "-//W3C//DTD SVG 1.1//EN" "http://www.w3.org/Graphics/SVG/1.1/DTD/svg11.dtd"><svg t="1562578657709" class="icon" viewBox="0 0 1024 1024" version="1.1" xmlns="http://www.w3.org/2000/svg" p-id="4253" xmlns:xlink="http://www.w3.org/1999/xlink" width="200" height="200"><defs><style type="text/css"></style></defs><path d="M512 650.865c-76.57 0-138.865-62.295-138.865-138.865S435.43 373.135 512 373.135 650.865 435.43 650.865 512 588.57 650.865 512 650.865z m0-225.623c-47.841 0-86.758 38.922-86.758 86.758s38.922 86.753 86.758 86.753 86.753-38.922 86.753-86.753c0-47.841-38.917-86.758-86.753-86.758z" fill="#2C2C2C" p-id="4254"></path><path d="M601.641 891.505A25.907 25.907 0 0 1 576.21 871.1c-5.31-23.88-32.917-41.886-64.21-41.886-31.304 0-58.9 18.007-64.205 41.886a25.907 25.907 0 0 1-25.436 20.404h-5.069a26.01 26.01 0 0 1-13.02-3.497l-164.045-94.705a26.092 26.092 0 0 1-9.543-9.544l-2.171-3.768a26.112 26.112 0 0 1 5.458-32.67c18.698-16.277 20.935-49.368 5.207-76.97-12.734-22.338-34.658-36.777-55.844-36.777-4.767 0-9.35 0.753-13.614 2.243a26.045 26.045 0 0 1-8.566 1.454 26.153 26.153 0 0 1-22.574-13.03l-2.59-4.5a26.081 26.081 0 0 1-3.493-13.031V417.295c0-4.562 1.209-9.062 3.487-13.02l1.485-2.565a26.143 26.143 0 0 1 22.58-13.035c3.127 0 6.21 0.563 9.164 1.674a44.165 44.165 0 0 0 15.396 2.77c22.057 0 44.482-14.551 57.344-37.074 16.312-28.58 13.27-62.817-7.066-79.647a25.984 25.984 0 0 1-5.965-33.08l1.767-3.062a26.092 26.092 0 0 1 9.549-9.554l164.04-94.71A26.076 26.076 0 0 1 417.3 132.5h5.054a25.907 25.907 0 0 1 25.41 20.306c5.233 23.148 32.856 40.602 64.246 40.602 31.386 0 59.003-17.454 64.246-40.607a25.917 25.917 0 0 1 25.41-20.3h5.06c4.566 0 9.067 1.208 13.024 3.491l164.03 94.7a26.076 26.076 0 0 1 9.518 9.508l1.49 2.57a25.994 25.994 0 0 1-5.832 33.034c-20.695 17.31-23.823 52.014-7.29 80.732 12.948 22.482 35.614 37.008 57.738 37.008a45.84 45.84 0 0 0 15.892-2.76 25.856 25.856 0 0 1 8.97-1.603c9.267 0 17.905 4.982 22.544 12.995l1.172 2.038a26.028 26.028 0 0 1 3.523 13.071v189.42c0 4.567-1.209 9.072-3.502 13.03l-1.204 2.094a26.117 26.117 0 0 1-22.548 13.015 25.948 25.948 0 0 1-9.047-1.628 42.445 42.445 0 0 0-14.561-2.57c-21.842 0-44.288 14.612-57.406 37.227-16.466 28.37-13.885 63.406 5.868 79.765a25.99 25.99 0 0 1 5.96 33.07l-1.747 3.03a26.03 26.03 0 0 1-9.548 9.56l-164.03 94.705a26.204 26.204 0 0 1-13.05 3.502h-5.049zM512 777.108c40.474 0 78.812 18.75 100.035 48.932l3.128 4.45 118.722-68.552-2.534-5.018c-17.213-34.114-14.607-78.249 6.815-115.184 21.427-36.93 57.19-60.473 95.662-62.966l5.565-0.364V445.804l-5.632-0.303c-38.82-2.089-76.088-26.214-97.26-62.955-21.227-36.864-23.398-81.203-5.672-115.717l2.585-5.038-118.461-68.398-3.144 4.357c-21.263 29.465-59.51 47.77-99.814 47.77-40.31 0-78.551-18.3-99.81-47.76l-3.143-4.357-118.856 68.613 2.586 5.038c17.51 34.104 15.37 78.095-5.576 114.806-21.094 36.95-58.24 61.174-96.952 63.206l-5.637 0.297V581.32l5.545 0.373c38.082 2.586 73.328 26.077 94.295 62.838 20.25 35.523 22.85 78.32 6.789 111.688l-2.391 4.977 120.002 69.283 3.129-4.454c21.212-30.172 59.54-48.917 100.024-48.917z" fill="#2C2C2C" p-id="4255"></path></svg>